# xmcd
#
# Track frame offsets:
#	150
#	18383
#	41357
#	56992
#	71396
#	87344
#	102459
#	114088
#	132034
#	144845
#	159741
#	171580
#	183874
#	198418
#	214147
#	227565
#	245776
#	259252
#
# Disc length: 3644 seconds
# Revision: 4
# Processed by: cddbd v1.5.2PL0 Copyright (c) Steve Scherf et al.
# Submitted via: dBpowerAMP V12.0
#
DISCID=fe0e3a12
DTITLE=Various Artist - Movin' to the Country
DYEAR=1997
DGENRE=Country
TTITLE0=Trace Adkins - Thinkin' Thing (This Ain't No)
TTITLE1=Dan Seals - You Still Move Me
TTITLE2=John Berry - Kiss Me in the Car
TTITLE3=Reba McEntire - Is There Life out There?
TTITLE4=Billy Dean - Only Here for a Little While
TTITLE5=Paul Davis - You're Still New to Me
TTITLE6=Chris Ledoux - Whatcha Gonna Do with a Cowboy
TTITLE7=Vince Gill - I Still Believe in You
TTITLE8=Michael Martin Murphy - What's Forever For
TTITLE9=T. Graham Brown - Darlene
TTITLE10=Emilio - I'd Love You to Love Me
TTITLE11=Tanya Tucker - Strong Enough to Bend
TTITLE12=Eddie Rabbitt - American Boy
TTITLE13=Johnny Rodriguez - I Didn't (Every Chance I Had)
TTITLE14=Mel McDaniel - Baby's Got Her Blue Jeans On
TTITLE15=Juice Newton - Break It to Me Gently
TTITLE16=T. Graham Brown - I Wish That I Could Hurt That Way Again
TTITLE17=Lee Greenwood - I.O.U.
EXTD=
EXTT0=
EXTT1=
EXTT2=
EXTT3=
EXTT4=
EXTT5=
EXTT6=
EXTT7=
EXTT8=
EXTT9=
EXTT10=
EXTT11=
EXTT12=
EXTT13=
EXTT14=
EXTT15=
EXTT16=
EXTT17=
PLAYORDER=
